<?xml version="1.0" encoding="UTF-8" standalone="no"?>
<svg xmlns="http://www.w3.org/2000/svg" version="1.1" height="1500" width="1800">
<defs><radialGradient id="StarGradient1"><stop offset="70%" stop-color="white"/><stop offset="100%" stop-color="white" stop-opacity="0.25" /></radialGradient></defs>
	<rect width="100%" height="100%" fill="#0e218a" />
	<path d="M 691.7913287992984 1026.0482611836085 C 692.3923024815807 1025.6646338908847,694.1892619545564 1024.5070169265705,695.3971708929919 1023.7464974272661 C 696.6050798314272 1022.9859779279618,697.819056450459 1022.2321276250742,699.038782429911 1021.4851441877825 C 700.2585084093629 1020.7381607504905,701.4841969863609 1019.9979135883144,702.7155267697036 1019.2645968035149 C 703.9468565530465 1018.5312800187154,705.184042808481 1017.8047654100691,706.426761129968 1017.0852434789858 C 707.6694794514551 1016.3657215479026,708.9179470957288 1015.6530665048276,710.171836698626 1014.947465217016 C 711.425726301523 1014.2418639292042,712.6852570727837 1013.5431930407603,713.9500987473509 1012.8516357521157 C 715.2149404219181 1012.1600784634711,716.4853141242152 1011.4755138739552,717.7608867460299 1010.7981214851476 C 719.0364593678446 1010.1207290963401,720.3174539096248 1009.4503904839322,721.6035344782395 1008.7872814192706 C 722.889615046854 1008.124172354609,724.1810064797897 1007.4681769104499,725.4773701577174 1006.8194670971778 C 726.773733835645 1006.1707572839058,728.0752963937836 1005.529219691609,729.3817165458054 1004.8950225396387 C 730.6881366978272 1004.2608253876683,731.999642837062 1003.6338578032709,733.3158910698478 1003.0142841853555 C 734.6321393026337 1002.3947105674401,735.9533597404829 1001.7824225997953,737.2792059425207 1001.1775808321465 C 738.6050521445585 1000.5727390644979,739.9357559002501 999.975237756112,741.2709682820739 999.3852335794637 C 742.6061806638976 998.7952294028155,743.94613509875 998.2126192111353,745.2904802334631 997.6375557722572 C 746.6348253681759 997.062492333379,747.9837962262687 996.4948751125298,749.3370390903515 995.9348529461952 C 750.6902819544342 995.3748307798606,752.0480334035614 994.8223057628394,753.4099374179597 994.2774227742491 C 754.7718414323581 993.7325397856586,756.1381361052572 993.1952035669866,757.5084631767419 992.6655550146527 C 758.8787902482267 992.1359064623189,760.2533892840769 991.6138529811532,761.6318998468676 991.0995314602462 C 763.0104104096582 990.5852099393395,764.3930734958386 990.0785304630509,765.7795265534861 989.5796258892118 C 767.1659796111336 989.0807213153726,768.5564650252348 988.5895044235909,769.9506181927529 988.1061040172108 C 771.3447713602712 987.6227036108306,772.7428360123549 987.1470351799575,774.1444455585948 986.6792234509302 C 775.5460551048349 986.2114117219029,776.9514545799321 985.7513749100989,778.3602754701926 985.2992336430466 C 779.7690963604533 984.8470923759943,781.181584961293 984.4027676086412,782.5973709001585 983.9663758486165 C 784.0131568390242 983.5299840885917,785.4324876289874 983.101449044232,786.8549911033859 982.6808830828988 C 788.2774945777845 982.2603171215659,789.7034194240752 981.8476467183222,791.1323917465497 981.4429800806186 C 792.5613640690243 981.0383134429152,793.9936336860483 980.6415798253938,795.4288250382333 980.2528832566775 C 796.8640163904183 979.864186687961,798.302380383364 979.4834592146393,799.7435398596597 979.1108006683194 C 801.1846993359551 978.7381421219994,802.6289062445703 978.3734873530994,804.0757818960061 978.0169319787581 C 805.522657547442 977.6603766044165,806.9724548899923 977.311858290269,808.424793768275 976.9714684222696 C 809.8771326465579 976.6310785542702,811.3322669639688 976.29875762417,812.7898151657029 975.9745927707615 C 814.2473633674371 975.6504279173529,815.7075802676036 975.3343624689064,817.1700829786799 975.0264793018191 C 818.6325856897562 974.7185961347318,820.0976298920174 974.4188414237004,821.5648314321603 974.1272937682381 C 823.0320329723032 973.8357461127761,824.5016483520704 973.5523545434156,825.9732922195376 973.2771933690465 C 827.4449360870047 973.0020321946773,828.9188657205387 972.7350533105782,830.3946946369631 972.4763267220229 C 831.8705235533872 972.2176001334677,833.348509762715 971.9670806088917,834.8282657180833 971.7248338377146 C 836.3080216734515 971.4825870665373,837.7898060714133 971.2485706982592,839.2732303691726 971.0228460949602 C 840.7566546669317 970.7971214916612,842.2419782023549 970.5796491913101,843.7288115046382 970.3704862179214 C 845.2156448069217 970.1613232445328,846.7042478099073 969.9604330314418,848.1942301828734 969.7678682546283 C 849.6842125558395 969.5753034778148,851.1758347831602 969.3910304723737,852.6687057424348 969.2150975570406 C 854.1615767017094 969.0391646417074,855.6559573823057 968.8715410592225,857.1514559385207 968.7122707626299 C 858.6469544947358 968.5530004660374,860.1438323753042 968.4020556110992,861.6416970797259 968.259475777485 C 863.1395617841475 968.1168959438709,864.6386751748154 967.9826562052323,866.1386441650498 967.8567917609441 C 867.6386131552841 967.7309273166558,869.1396999753582 967.6134161626178,870.6415110211333 967.5042891117555 C 872.1433220669084 967.3951620608932,873.6461198906924 967.2944000352013,875.1495104397004 967.2020294557701 C 876.6529009887084 967.1096588763389,878.1571470913829 967.0256635945933,879.6618543151812 966.9500656351686 C 881.1665615389796 966.8744676757441,882.6719929425308 966.8072538223181,884.177753782491 966.7484416992223 C 885.6835146224512 966.6896295761265,887.1898681416468 966.6392089016017,888.6964193549434 966.5971928965932 C 890.20297056824 966.5551768915848,891.7099828566397 966.5215582106947,893.2170610622709 966.496345669171 C 894.7241392679022 966.4711331276471,896.2315468638972 966.4543223177375,897.7388885887303 966.4459176474509 C 899.2462303135635 966.4375129771641,900.7537696864365 966.4375129771641,902.2611114112697 966.4459176474509 C 903.7684531361028 966.4543223177375,905.2758607320978 966.4711331276472,906.7829389377291 966.496345669171 C 908.2900171433603 966.5215582106945,909.79702943176 966.5551768915848,911.3035806450566 966.5971928965932 C 912.8101318583532 966.6392089016017,914.3164853775485 966.6896295761265,915.8222462175089 966.7484416992223 C 917.3280070574692 966.8072538223181,918.8334384610204 966.8744676757439,920.3381456848188 966.9500656351686 C 921.8428529086171 967.0256635945934,923.3470990112914 967.1096588763389,924.8504895602995 967.2020294557701 C 926.3538801093074 967.2944000352013,927.8566779330913 967.3951620608931,929.3584889788666 967.5042891117555 C 930.8603000246418 967.6134161626179,932.3613868447155 967.7309273166558,933.8613558349502 967.8567917609441 C 935.361324825185 967.9826562052323,936.8604382158527 968.1168959438706,938.3583029202741 968.259475777485 C 939.8561676246956 968.4020556110994,941.3530455052642 968.5530004660374,942.8485440614793 968.7122707626299 C 944.3440426176943 968.8715410592225,945.8384232982906 969.0391646417074,947.3312942575651 969.2150975570406 C 948.8241652168398 969.3910304723737,950.3157874441605 969.5753034778148,951.8057698171266 969.7678682546283 C 953.2957521900927 969.9604330314418,954.7843551930783 970.1613232445328,956.2711884953618 970.3704862179214 C 957.7580217976451 970.5796491913101,959.2433453330683 970.7971214916612,960.7267696308274 971.0228460949602 C 962.2101939285867 971.2485706982592,963.6919783265485 971.4825870665373,965.1717342819167 971.7248338377146 C 966.651490237285 971.9670806088917,968.1294764466126 972.2176001334677,969.6053053630368 972.4763267220229 C 971.081134279461 972.7350533105782,972.5550639129953 973.0020321946773,974.0267077804624 973.2771933690465 C 975.4983516479296 973.5523545434156,976.9679670276965 973.8357461127762,978.4351685678397 974.1272937682381 C 979.9023701079827 974.4188414237002,981.3674143102438 974.7185961347318,982.8299170213201 975.0264793018191 C 984.2924197323964 975.3343624689064,985.7526366325629 975.6504279173531,987.2101848342971 975.9745927707615 C 988.6677330360312 976.2987576241699,990.1228673534421 976.6310785542702,991.5752062317249 976.9714684222696 C 993.0275451100075 977.311858290269,994.477342452558 977.6603766044163,995.9242181039939 978.0169319787581 C 997.3710937554297 978.3734873530997,998.8153006640449 978.7381421219994,1000.2564601403403 979.1108006683194 C 1001.697619616636 979.4834592146393,1003.1359836095817 979.8641866879608,1004.5711749617667 980.2528832566774 C 1006.0063663139517 980.6415798253939,1007.4386359309757 981.0383134429152,1008.8676082534503 981.4429800806186 C 1010.2965805759248 981.8476467183222,1011.7225054222155 982.2603171215659,1013.1450088966141 982.6808830828988 C 1014.5675123710126 983.101449044232,1015.9868431609758 983.5299840885918,1017.4026290998415 983.9663758486165 C 1018.818415038707 984.402767608641,1020.2309036395468 984.8470923759943,1021.6397245298074 985.2992336430466 C 1023.0485454200679 985.7513749100989,1024.4539448951653 986.2114117219027,1025.855554441405 986.6792234509302 C 1027.257163987645 987.1470351799576,1028.6552286397289 987.6227036108306,1030.049381807247 988.1061040172108 C 1031.4435349747653 988.5895044235909,1032.8340203888665 989.0807213153727,1034.220473446514 989.5796258892119 C 1035.6069265041615 990.0785304630512,1036.989589590342 990.5852099393395,1038.3681001531324 991.0995314602462 C 1039.7466107159232 991.6138529811532,1041.1212097517734 992.1359064623189,1042.4915368232582 992.6655550146527 C 1043.861863894743 993.1952035669866,1045.2281585676417 993.7325397856586,1046.5900625820402 994.2774227742491 C 1047.9519665964388 994.8223057628394,1049.309718045566 995.3748307798605,1050.6629609096485 995.9348529461952 C 1052.0162037737311 996.4948751125299,1053.3651746318242 997.062492333379,1054.709519766537 997.6375557722572 C 1056.0538649012499 998.2126192111353,1057.3938193361025 998.7952294028156,1058.729031717926 999.3852335794637 C 1060.0642440997499 999.9752377561118,1061.3949478554416 1000.5727390644979,1062.7207940574795 1001.1775808321465 C 1064.0466402595173 1001.7824225997953,1065.3678606973663 1002.3947105674401,1066.6841089301522 1003.0142841853555 C 1068.000357162938 1003.6338578032709,1069.311863302173 1004.2608253876683,1070.6182834541946 1004.8950225396386 C 1071.9247036062163 1005.529219691609,1073.2262661643551 1006.1707572839058,1074.5226298422826 1006.8194670971778 C 1075.8189935202101 1007.4681769104499,1077.1103849531457 1008.1241723546091,1078.3964655217605 1008.7872814192706 C 1079.6825460903754 1009.4503904839321,1080.9635406321554 1010.1207290963399,1082.2391132539701 1010.7981214851475 C 1083.5146858757848 1011.475513873955,1084.785059578082 1012.1600784634711,1086.049901252649 1012.8516357521157 C 1087.3147429272165 1013.5431930407603,1088.5742736984766 1014.2418639292042,1089.828163301374 1014.947465217016 C 1091.0820529042712 1015.6530665048276,1092.330520548545 1016.3657215479026,1093.5732388700321 1017.0852434789858 C 1094.8159571915191 1017.8047654100691,1096.0531434469538 1018.5312800187154,1097.2844732302965 1019.2645968035149 C 1098.5158030136392 1019.9979135883144,1099.7414915906372 1020.7381607504905,1100.961217570089 1021.4851441877825 C 1102.1809435495409 1022.2321276250742,1103.3949201685725 1022.9859779279615,1104.602829107008 1023.7464974272659 C 1105.8107380454433 1024.5070169265703,1107.6076975184194 1025.6646338908847,1108.2086712007017 1026.0482611836085 " stroke="white" stroke-width="5.0" fill-opacity="0"/>
	<path d="M 469.5406654231205 656.7978020655484 C 470.7831436056169 656.0046749195988,474.4982529453868 653.6113690823345,476.99553451809885 652.0390391898503 C 479.49281609081095 650.466709297366,482.0026422407341 648.908167581115,484.52435485939304 647.363822710643 C 487.046067478052 645.819477840171,489.5801074208187 644.2890598272454,492.1258102300525 642.772969967018 C 494.67151303928614 641.2568801067904,497.22932376441514 639.7548533506769,499.79857171479546 638.2672835492781 C 502.36781966517583 636.7797137478793,504.9489540064867 635.3063408385963,507.54129793233454 633.8475511586255 C 510.13364185818233 632.3887614786547,512.7376485719723 630.944299996847,515.3526352698823 629.5145454694534 C 517.9676219677923 628.0847909420598,520.5940458117229 626.6694934139668,523.2312181197944 625.2690239942641 C 525.868390427866 623.8685545745615,528.5167722405516 622.482668427869,531.1756691183115 621.111728951237 C 533.8345659960714 619.7407894746049,536.5044427773506 618.3845569951901,539.1845993863541 617.0433871344719 C 541.8647559953575 615.7022172737537,544.5556609872369 614.3758755633265,547.2566087723319 613.0647097869282 C 549.9575565574269 611.7535440105299,552.6690193256815 610.4573249451828,555.3902860969239 609.1763924760824 C 558.1115528681663 607.8954600069819,560.8430993845827 606.629590196652,563.5842093997861 605.3791149723257 C 566.3253194149894 604.1286397479996,569.0764721402373 602.893340496852,571.8369461881439 601.6735411301256 C 574.5974202360504 600.4537417633992,577.3676982031672 599.2492290311383,580.1470536872257 598.0603187719669 C 582.9264091712843 596.8714085127955,585.7153280697601 595.6978928769093,588.5130790924948 594.5400795750975 C 591.3108301152294 593.3822662732856,594.1179023756764 592.239952892232,596.9335598236336 591.1134389610961 C 599.7492172715907 589.9869250299602,602.573952150981 588.8760136073005,605.4070237802378 587.7809959882819 C 608.2400954094945 586.6859783692634,611.081999076954 585.6066631187491,613.9319895991744 584.5433332469845 C 616.7819801213947 583.4800033752199,619.640555744537 582.4324729868407,622.5069669135596 581.4010167576945 C 625.3733780825822 580.3695605285484,628.2481259143661 579.3539981355424,631.1304566133101 578.354595872108 C 634.0127873122541 577.3551936086736,636.9032047783514 576.3717767555135,639.800951107223 575.404603177088 C 642.6986974360946 574.4374295986626,645.6042792227527 573.4863302100157,648.5169345865392 572.5515544015553 C 651.4295899503255 571.6167785930951,654.3498280927072 570.6981629437664,657.276883289942 569.7959483263264 C 660.2039384871769 568.8937337088864,663.138322458165 568.0077623947509,666.0792657699479 567.1382666969153 C 669.0202090817307 566.2687709990796,671.9682258811813 565.4155989090056,674.9225431606392 564.5789741393128 C 677.876860440097 563.74234936962,680.8379946845229 562.9221256583904,683.8051694466947 562.1185180787581 C 686.7723442088663 561.3149104991259,689.746078221539 560.5277785613637,692.72559173367 559.7573286615195 C 695.705105245801 558.9868787616754,698.690919147252 558.2329762067735,701.6822505194801 557.4958186796936 C 704.6735818917083 556.7586611526136,707.6709536906183 556.0381197806786,710.6735799670383 555.3343834990399 C 713.6762062434585 554.6306472174011,716.684611927912 553.9435929962104,719.6980081780008 553.2734009898608 C 722.7114044280898 552.6032089835111,725.7303180571853 551.949762026492,728.7539574675724 551.313231460942 C 731.7775968779594 550.6767008953921,734.8064906737569 550.0569754406216,737.8398446403231 549.454217596561 C 740.8731986068892 548.8514597525003,743.9115430466785 548.2655641427351,746.9540812669691 547.696684396578 C 749.9966194872595 547.127804650421,753.0438833961322 546.5758413141552,756.0950739620666 546.0409391196184 C 759.1462645280011 545.5060369250815,762.2019151717137 544.9881023586413,765.2612246625754 544.4872712293567 C 768.320534153437 543.986440100072,771.3840373315452 543.5026248507439,774.4509309072363 543.0359523439106 C 777.5178244829272 542.5692798370773,780.5886446221771 542.1196684872797,783.662586116721 541.6872361883568 C 786.7365276112649 541.2548038894339,789.8141278592233 540.8394750419297,792.8945798744998 540.4413585503731 C 795.9750318897763 540.0432420588166,799.0588742086856 539.6622683229715,802.1452982083806 539.2985372390176 C 805.2317222080757 538.9348061550637,808.3212674689158 538.5882541341522,811.4131238726702 538.2589720466495 C 814.5049802764244 537.9296899591469,817.5996883531657 537.6176202387088,820.6964366309065 537.322844714002 C 823.7931849086473 537.0280691892953,826.8925147726765 536.7505363265436,829.9936135391152 536.4903188984089 C 833.0947123055539 536.230101470274,836.1981221202597 535.9871539845575,839.3030292295385 535.7615401451931 C 842.4079363388174 535.5359263058286,845.5148835543159 535.3276066701488,848.6230561947883 535.1366358622228 C 851.7312288352608 534.9456650542967,854.8411702832464 534.772009687883,857.9520650723732 534.6157152976367 C 861.0629598615 534.4594209073905,864.1753518502038 534.3204601693329,867.2884249295496 534.1988695207451 C 870.4014980088955 534.0772788721573,873.5157964181358 533.9730370561002,876.630503548448 533.8861714061095 C 879.7452106787604 533.7993057561188,882.860871055068 533.7298010860115,885.976667711423 533.6776756208005 C 889.0924643677781 533.6255501555895,892.2089420195795 533.590794782503,895.3252834865792 533.5734186148435 C 898.4416249535789 533.556042447184,901.5583750464211 533.556042447184,904.6747165134208 533.5734186148435 C 907.7910579804205 533.590794782503,910.9075356322218 533.6255501555895,914.0233322885769 533.6776756208005 C 917.1391289449319 533.7298010860115,920.2547893212396 533.7993057561188,923.369496451552 533.8861714061095 C 926.4842035818642 533.9730370561002,929.5985019911045 534.0772788721573,932.7115750704503 534.1988695207451 C 935.8246481497962 534.3204601693329,938.9370401385 534.4594209073905,942.0479349276268 534.6157152976367 C 945.1588297167536 534.772009687883,948.2687711647392 534.9456650542967,951.3769438052116 535.1366358622228 C 954.4851164456841 535.3276066701488,957.5920636611826 535.5359263058286,960.6969707704613 535.7615401451931 C 963.8018778797403 535.9871539845575,966.9052876944461 536.230101470274,970.0063864608848 536.4903188984089 C 973.1074852273235 536.7505363265436,976.2068150913525 537.0280691892953,979.3035633690934 537.322844714002 C 982.4003116468342 537.6176202387088,985.4950197235756 537.9296899591469,988.5868761273298 538.2589720466495 C 991.6787325310842 538.5882541341522,994.7682777919241 538.9348061550637,997.8547017916193 539.2985372390176 C 1000.9411257913143 539.6622683229715,1004.0249681102237 540.0432420588166,1007.1054201255002 540.4413585503731 C 1010.185872140777 540.8394750419297,1013.2634723887351 541.2548038894339,1016.337413883279 541.6872361883568 C 1019.4113553778229 542.1196684872797,1022.482175517073 542.5692798370773,1025.5490690927638 543.0359523439106 C 1028.6159626684548 543.5026248507439,1031.679465846563 543.986440100072,1034.7387753374246 544.4872712293567 C 1037.7980848282862 544.9881023586413,1040.8537354719986 545.5060369250815,1043.9049260379331 546.0409391196184 C 1046.9561166038675 546.5758413141552,1050.0033805127405 547.1278046504209,1053.045918733031 547.696684396578 C 1056.0884569533216 548.2655641427351,1059.1268013931106 548.8514597525003,1062.1601553596768 549.454217596561 C 1065.193509326243 550.0569754406216,1068.2224031220405 550.676700895392,1071.2460425324275 551.313231460942 C 1074.2696819428145 551.9497620264921,1077.2885955719103 552.6032089835111,1080.301991821999 553.2734009898608 C 1083.3153880720881 553.9435929962104,1086.3237937565416 554.6306472174011,1089.3264200329616 555.3343834990399 C 1092.3290463093817 556.0381197806786,1095.3264181082916 556.7586611526136,1098.3177494805198 557.4958186796936 C 1101.309080852748 558.2329762067735,1104.294894754199 558.9868787616755,1107.27440826633 559.7573286615195 C 1110.2539217784608 560.5277785613636,1113.2276557911337 561.3149104991259,1116.1948305533053 562.118518078758 C 1119.1620053154772 562.9221256583902,1122.1231395599032 563.7423493696199,1125.0774568393608 564.5789741393128 C 1128.0317741188185 565.4155989090057,1130.9797909182691 566.2687709990796,1133.920734230052 567.1382666969153 C 1136.8616775418348 568.0077623947509,1139.7960615128234 568.8937337088864,1142.723116710058 569.7959483263264 C 1145.6501719072928 570.6981629437664,1148.5704100496744 571.6167785930951,1151.4830654134607 572.5515544015553 C 1154.395720777247 573.4863302100156,1157.3013025639052 574.4374295986626,1160.1990488927768 575.404603177088 C 1163.0967952216483 576.3717767555135,1165.9872126877456 577.3551936086736,1168.8695433866897 578.354595872108 C 1171.7518740856337 579.3539981355424,1174.6266219174177 580.3695605285484,1177.4930330864404 581.4010167576945 C 1180.3594442554631 582.4324729868407,1183.2180198786052 583.4800033752199,1186.0680104008256 584.5433332469845 C 1188.918000923046 585.6066631187491,1191.7599045905056 586.6859783692631,1194.5929762197622 587.7809959882818 C 1197.426047849019 588.8760136073005,1200.2507827284094 589.9869250299602,1203.0664401763663 591.1134389610961 C 1205.8820976243235 592.239952892232,1208.6891698847703 593.3822662732856,1211.486920907505 594.5400795750975 C 1214.2846719302397 595.6978928769093,1217.0735908287156 596.8714085127955,1219.8529463127743 598.0603187719669 C 1222.6323017968327 599.2492290311383,1225.4025797639495 600.4537417633992,1228.1630538118561 601.6735411301256 C 1230.9235278597628 602.893340496852,1233.6746805850105 604.1286397479997,1236.4157906002138 605.3791149723257 C 1239.156900615417 606.6295901966519,1241.8884471318336 607.8954600069817,1244.609713903076 609.1763924760821 C 1247.3309806743184 610.4573249451826,1250.042443442573 611.7535440105297,1252.743391227668 613.0647097869281 C 1255.4443390127628 614.3758755633263,1258.1352440046426 615.7022172737538,1260.815400613646 617.0433871344719 C 1263.4955572226493 618.38455699519,1266.1654340039286 619.7407894746049,1268.8243308816884 621.1117289512368 C 1271.4832277594485 622.4826684278688,1274.131609572134 623.8685545745612,1276.7687818802056 625.269023994264 C 1279.405954188277 626.6694934139667,1282.0323780322076 628.0847909420598,1284.6473647301177 629.5145454694534 C 1287.2623514280278 630.944299996847,1289.8663581418175 632.3887614786547,1292.4587020676654 633.8475511586255 C 1295.0510459935133 635.3063408385963,1297.6321803348244 636.7797137478793,1300.2014282852047 638.2672835492781 C 1302.770676235585 639.7548533506769,1305.328486960714 641.2568801067905,1307.8741897699474 642.772969967018 C 1310.419892579181 644.2890598272454,1312.9539325219482 645.8194778401711,1315.475645140607 647.363822710643 C 1317.997357759266 648.908167581115,1320.5071839091888 650.4667092973659,1323.004465481901 652.0390391898502 C 1325.501747054613 653.6113690823344,1329.216856394383 656.0046749195986,1330.4593345768794 656.7978020655484 " stroke="white" stroke-width="5.0" fill-opacity="0"/>
	<circle cx="691.7913287992984" cy="1026.0482611836085" r="3" stroke="yellow" stroke-width="1.0" fill="yellow" opacity="1"/>
	<circle cx="1108.2086712007017" cy="1026.0482611836085" r="3" stroke="yellow" stroke-width="1.0" fill="yellow" opacity="1"/>
	<circle cx="689.2721137597298" cy="1022.4644819136852" r="3" stroke="yellow" stroke-width="1.0" fill="yellow" opacity="1"/>
	<circle cx="1110.7278862402702" cy="1022.4644819136852" r="3" stroke="yellow" stroke-width="1.0" fill="yellow" opacity="1"/>
	<circle cx="686.7569921341668" cy="1018.8754099891148" r="3" stroke="yellow" stroke-width="1.0" fill="yellow" opacity="1"/>
	<circle cx="1113.243007865833" cy="1018.8754099891148" r="3" stroke="yellow" stroke-width="1.0" fill="yellow" opacity="1"/>
	<circle cx="684.2460127791435" cy="1015.2811151280423" r="3" stroke="yellow" stroke-width="1.0" fill="yellow" opacity="1"/>
	<circle cx="1115.7539872208565" cy="1015.2811151280423" r="3" stroke="yellow" stroke-width="1.0" fill="yellow" opacity="1"/>
	<circle cx="681.7392244707293" cy="1011.6816671500686" r="3" stroke="yellow" stroke-width="1.0" fill="yellow" opacity="1"/>
	<circle cx="1118.2607755292706" cy="1011.6816671500686" r="3" stroke="yellow" stroke-width="1.0" fill="yellow" opacity="1"/>
	<circle cx="679.2366759035824" cy="1008.0771359748949" r="3" stroke="yellow" stroke-width="1.0" fill="yellow" opacity="1"/>
	<circle cx="1120.7633240964176" cy="1008.0771359748949" r="3" stroke="yellow" stroke-width="1.0" fill="yellow" opacity="1"/>
	<circle cx="676.7384156900036" cy="1004.467591620963" r="3" stroke="yellow" stroke-width="1.0" fill="yellow" opacity="1"/>
	<circle cx="1123.2615843099964" cy="1004.467591620963" r="3" stroke="yellow" stroke-width="1.0" fill="yellow" opacity="1"/>
	<circle cx="674.2444923589915" cy="1000.8531042040977" r="3" stroke="yellow" stroke-width="1.0" fill="yellow" opacity="1"/>
	<circle cx="1125.7555076410085" cy="1000.8531042040977" r="3" stroke="yellow" stroke-width="1.0" fill="yellow" opacity="1"/>
	<circle cx="671.7549543553005" cy="997.2337439361424" r="3" stroke="yellow" stroke-width="1.0" fill="yellow" opacity="1"/>
	<circle cx="1128.2450456446995" cy="997.2337439361424" r="3" stroke="yellow" stroke-width="1.0" fill="yellow" opacity="1"/>
	<circle cx="669.2698500384995" cy="993.6095811235965" r="3" stroke="yellow" stroke-width="1.0" fill="yellow" opacity="1"/>
	<circle cx="1130.7301499615005" cy="993.6095811235965" r="3" stroke="yellow" stroke-width="1.0" fill="yellow" opacity="1"/>
	<circle cx="666.7892276820327" cy="989.9806861662497" r="3" stroke="yellow" stroke-width="1.0" fill="yellow" opacity="1"/>
	<circle cx="1133.2107723179674" cy="989.9806861662497" r="3" stroke="yellow" stroke-width="1.0" fill="yellow" opacity="1"/>
	<circle cx="664.3131354722813" cy="986.3471295558138" r="3" stroke="yellow" stroke-width="1.0" fill="yellow" opacity="1"/>
	<circle cx="1135.6868645277186" cy="986.3471295558138" r="3" stroke="yellow" stroke-width="1.0" fill="yellow" opacity="1"/>
	<circle cx="661.841621507628" cy="982.7089818745534" r="3" stroke="yellow" stroke-width="1.0" fill="yellow" opacity="1"/>
	<circle cx="1138.158378492372" cy="982.7089818745534" r="3" stroke="yellow" stroke-width="1.0" fill="yellow" opacity="1"/>
	<circle cx="659.3747337975228" cy="979.0663137939163" r="3" stroke="yellow" stroke-width="1.0" fill="yellow" opacity="1"/>
	<circle cx="1140.6252662024772" cy="979.0663137939163" r="3" stroke="yellow" stroke-width="1.0" fill="yellow" opacity="1"/>
	<circle cx="656.9125202615498" cy="975.4191960731583" r="3" stroke="yellow" stroke-width="1.0" fill="yellow" opacity="1"/>
	<circle cx="1143.0874797384502" cy="975.4191960731583" r="3" stroke="yellow" stroke-width="1.0" fill="yellow" opacity="1"/>
	<circle cx="654.4550287284973" cy="971.7676995579714" r="3" stroke="yellow" stroke-width="1.0" fill="yellow" opacity="1"/>
	<circle cx="1145.5449712715026" cy="971.7676995579714" r="3" stroke="yellow" stroke-width="1.0" fill="yellow" opacity="1"/>
	<circle cx="652.0023069354272" cy="968.1118951791047" r="3" stroke="yellow" stroke-width="1.0" fill="yellow" opacity="1"/>
	<circle cx="1147.9976930645728" cy="968.1118951791047" r="3" stroke="yellow" stroke-width="1.0" fill="yellow" opacity="1"/>
	<circle cx="649.5544025267494" cy="964.4518539509891" r="3" stroke="yellow" stroke-width="1.0" fill="yellow" opacity="1"/>
	<circle cx="1150.4455974732507" cy="964.4518539509891" r="3" stroke="yellow" stroke-width="1.0" fill="yellow" opacity="1"/>
	<circle cx="647.1113630532953" cy="960.7876469703564" r="3" stroke="yellow" stroke-width="1.0" fill="yellow" opacity="1"/>
	<circle cx="1152.8886369467045" cy="960.7876469703564" r="3" stroke="yellow" stroke-width="1.0" fill="yellow" opacity="1"/>
	<circle cx="644.6732359713943" cy="957.1193454148586" r="3" stroke="yellow" stroke-width="1.0" fill="yellow" opacity="1"/>
	<circle cx="1155.3267640286056" cy="957.1193454148586" r="3" stroke="yellow" stroke-width="1.0" fill="yellow" opacity="1"/>
	<circle cx="642.2400686419522" cy="953.4470205416856" r="3" stroke="yellow" stroke-width="1.0" fill="yellow" opacity="1"/>
	<circle cx="1157.7599313580477" cy="953.4470205416856" r="3" stroke="yellow" stroke-width="1.0" fill="yellow" opacity="1"/>
	<circle cx="639.811908329531" cy="949.7707436861805" r="3" stroke="yellow" stroke-width="1.0" fill="yellow" opacity="1"/>
	<circle cx="1160.188091670469" cy="949.7707436861805" r="3" stroke="yellow" stroke-width="1.0" fill="yellow" opacity="1"/>
	<circle cx="637.3888022014303" cy="946.0905862604538" r="3" stroke="yellow" stroke-width="1.0" fill="yellow" opacity="1"/>
	<circle cx="1162.6111977985697" cy="946.0905862604538" r="3" stroke="yellow" stroke-width="1.0" fill="yellow" opacity="1"/>
	<circle cx="634.9707973267723" cy="942.4066197519974" r="3" stroke="yellow" stroke-width="1.0" fill="yellow" opacity="1"/>
	<circle cx="1165.0292026732277" cy="942.4066197519974" r="3" stroke="yellow" stroke-width="1.0" fill="yellow" opacity="1"/>
	<circle cx="632.5579406755865" cy="938.7189157222939" r="3" stroke="yellow" stroke-width="1.0" fill="yellow" opacity="1"/>
	<circle cx="1167.4420593244135" cy="938.7189157222939" r="3" stroke="yellow" stroke-width="1.0" fill="yellow" opacity="1"/>
	<circle cx="630.1502791178972" cy="935.0275458054291" r="3" stroke="yellow" stroke-width="1.0" fill="yellow" opacity="1"/>
	<circle cx="1169.8497208821027" cy="935.0275458054291" r="3" stroke="yellow" stroke-width="1.0" fill="yellow" opacity="1"/>
	<circle cx="627.747859422814" cy="931.332581706698" r="3" stroke="yellow" stroke-width="1.0" fill="yellow" opacity="1"/>
	<circle cx="1172.2521405771859" cy="931.332581706698" r="3" stroke="yellow" stroke-width="1.0" fill="yellow" opacity="1"/>
	<circle cx="625.3507282576222" cy="927.634095201213" r="3" stroke="yellow" stroke-width="1.0" fill="yellow" opacity="1"/>
	<circle cx="1174.6492717423778" cy="927.634095201213" r="3" stroke="yellow" stroke-width="1.0" fill="yellow" opacity="1"/>
	<circle cx="622.9589321868771" cy="923.9321581325105" r="3" stroke="yellow" stroke-width="1.0" fill="yellow" opacity="1"/>
	<circle cx="1177.041067813123" cy="923.9321581325105" r="3" stroke="yellow" stroke-width="1.0" fill="yellow" opacity="1"/>
	<circle cx="620.5725176714986" cy="920.2268424111537" r="3" stroke="yellow" stroke-width="1.0" fill="yellow" opacity="1"/>
	<circle cx="1179.4274823285014" cy="920.2268424111537" r="3" stroke="yellow" stroke-width="1.0" fill="yellow" opacity="1"/>
	<circle cx="618.1915310678705" cy="916.5182200133371" r="3" stroke="yellow" stroke-width="1.0" fill="yellow" opacity="1"/>
	<circle cx="1181.8084689321295" cy="916.5182200133371" r="3" stroke="yellow" stroke-width="1.0" fill="yellow" opacity="1"/>
	<circle cx="615.8160186269372" cy="912.8063629794874" r="3" stroke="yellow" stroke-width="1.0" fill="yellow" opacity="1"/>
	<circle cx="1184.1839813730628" cy="912.8063629794874" r="3" stroke="yellow" stroke-width="1.0" fill="yellow" opacity="1"/>
	<circle cx="613.4460264933081" cy="909.0913434128643" r="3" stroke="yellow" stroke-width="1.0" fill="yellow" opacity="1"/>
	<circle cx="1186.5539735066918" cy="909.0913434128643" r="3" stroke="yellow" stroke-width="1.0" fill="yellow" opacity="1"/>
	<circle cx="611.0816007043593" cy="905.373233478161" r="3" stroke="yellow" stroke-width="1.0" fill="yellow" opacity="1"/>
	<circle cx="1188.9183992956407" cy="905.373233478161" r="3" stroke="yellow" stroke-width="1.0" fill="yellow" opacity="1"/>
	<circle cx="608.7227871893399" cy="901.6521054001" r="3" stroke="yellow" stroke-width="1.0" fill="yellow" opacity="1"/>
	<circle cx="1191.27721281066" cy="901.6521054001" r="3" stroke="yellow" stroke-width="1.0" fill="yellow" opacity="1"/>
	<circle cx="606.3696317684808" cy="897.9280314620331" r="3" stroke="yellow" stroke-width="1.0" fill="yellow" opacity="1"/>
	<circle cx="1193.6303682315192" cy="897.9280314620331" r="3" stroke="yellow" stroke-width="1.0" fill="yellow" opacity="1"/>
	<circle cx="604.0221801521029" cy="894.201084004535" r="3" stroke="yellow" stroke-width="1.0" fill="yellow" opacity="1"/>
	<circle cx="1195.977819847897" cy="894.201084004535" r="3" stroke="yellow" stroke-width="1.0" fill="yellow" opacity="1"/>
	<circle cx="601.68047793973" cy="890.4713354239987" r="3" stroke="yellow" stroke-width="1.0" fill="yellow" opacity="1"/>
	<circle cx="1198.31952206027" cy="890.4713354239987" r="3" stroke="yellow" stroke-width="1.0" fill="yellow" opacity="1"/>
	<circle cx="599.3445706192038" cy="886.7388581712296" r="3" stroke="yellow" stroke-width="1.0" fill="yellow" opacity="1"/>
	<circle cx="1200.6554293807962" cy="886.7388581712296" r="3" stroke="yellow" stroke-width="1.0" fill="yellow" opacity="1"/>
	<circle cx="597.0145035657986" cy="883.0037247500381" r="3" stroke="yellow" stroke-width="1.0" fill="yellow" opacity="1"/>
	<circle cx="1202.9854964342014" cy="883.0037247500381" r="3" stroke="yellow" stroke-width="1.0" fill="yellow" opacity="1"/>
	<circle cx="594.6903220413419" cy="879.2660077158307" r="3" stroke="yellow" stroke-width="1.0" fill="yellow" opacity="1"/>
	<circle cx="1205.309677958658" cy="879.2660077158307" r="3" stroke="yellow" stroke-width="1.0" fill="yellow" opacity="1"/>
	<circle cx="592.3720711933329" cy="875.5257796742009" r="3" stroke="yellow" stroke-width="1.0" fill="yellow" opacity="1"/>
	<circle cx="1207.6279288066671" cy="875.5257796742009" r="3" stroke="yellow" stroke-width="1.0" fill="yellow" opacity="1"/>
	<circle cx="590.0597960540678" cy="871.7831132795187" r="3" stroke="yellow" stroke-width="1.0" fill="yellow" opacity="1"/>
	<circle cx="1209.9402039459324" cy="871.7831132795187" r="3" stroke="yellow" stroke-width="1.0" fill="yellow" opacity="1"/>
	<circle cx="587.7535415397631" cy="868.0380812335198" r="3" stroke="yellow" stroke-width="1.0" fill="yellow" opacity="1"/>
	<circle cx="1212.246458460237" cy="868.0380812335198" r="3" stroke="yellow" stroke-width="1.0" fill="yellow" opacity="1"/>
	<circle cx="585.4533524496845" cy="864.2907562838927" r="3" stroke="yellow" stroke-width="1.0" fill="yellow" opacity="1"/>
	<circle cx="1214.5466475503154" cy="864.2907562838927" r="3" stroke="yellow" stroke-width="1.0" fill="yellow" opacity="1"/>
	<circle cx="583.1592734652761" cy="860.5412112228659" r="3" stroke="yellow" stroke-width="1.0" fill="yellow" opacity="1"/>
	<circle cx="1216.840726534724" cy="860.5412112228659" r="3" stroke="yellow" stroke-width="1.0" fill="yellow" opacity="1"/>
	<circle cx="580.8713491492922" cy="856.7895188857935" r="3" stroke="yellow" stroke-width="1.0" fill="yellow" opacity="1"/>
	<circle cx="1219.1286508507078" cy="856.7895188857935" r="3" stroke="yellow" stroke-width="1.0" fill="yellow" opacity="1"/>
	<circle cx="578.5896239449319" cy="853.0357521497409" r="3" stroke="yellow" stroke-width="1.0" fill="yellow" opacity="1"/>
	<circle cx="1221.4103760550681" cy="853.0357521497409" r="3" stroke="yellow" stroke-width="1.0" fill="yellow" opacity="1"/>
	<circle cx="576.3141421749762" cy="849.2799839320694" r="3" stroke="yellow" stroke-width="1.0" fill="yellow" opacity="1"/>
	<circle cx="1223.685857825024" cy="849.2799839320694" r="3" stroke="yellow" stroke-width="1.0" fill="yellow" opacity="1"/>
	<circle cx="574.0449480409263" cy="845.5222871890186" r="3" stroke="yellow" stroke-width="1.0" fill="yellow" opacity="1"/>
	<circle cx="1225.9550519590737" cy="845.5222871890186" r="3" stroke="yellow" stroke-width="1.0" fill="yellow" opacity="1"/>
	<circle cx="571.7820856221456" cy="841.7627349142904" r="3" stroke="yellow" stroke-width="1.0" fill="yellow" opacity="1"/>
	<circle cx="1228.2179143778544" cy="841.7627349142904" r="3" stroke="yellow" stroke-width="1.0" fill="yellow" opacity="1"/>
	<circle cx="569.5255988750031" cy="838.0014001376304" r="3" stroke="yellow" stroke-width="1.0" fill="yellow" opacity="1"/>
	<circle cx="1230.4744011249968" cy="838.0014001376304" r="3" stroke="yellow" stroke-width="1.0" fill="yellow" opacity="1"/>
	<circle cx="567.2755316320195" cy="834.2383559234095" r="3" stroke="yellow" stroke-width="1.0" fill="yellow" opacity="1"/>
	<circle cx="1232.7244683679805" cy="834.2383559234095" r="3" stroke="yellow" stroke-width="1.0" fill="yellow" opacity="1"/>
	<circle cx="565.0319276010159" cy="830.4736753692048" r="3" stroke="yellow" stroke-width="1.0" fill="yellow" opacity="1"/>
	<circle cx="1234.968072398984" cy="830.4736753692048" r="3" stroke="yellow" stroke-width="1.0" fill="yellow" opacity="1"/>
	<circle cx="562.7948303642648" cy="826.7074316043794" r="3" stroke="yellow" stroke-width="1.0" fill="yellow" opacity="1"/>
	<circle cx="1237.2051696357353" cy="826.7074316043794" r="3" stroke="yellow" stroke-width="1.0" fill="yellow" opacity="1"/>
	<circle cx="560.5642833776437" cy="822.939697788662" r="3" stroke="yellow" stroke-width="1.0" fill="yellow" opacity="1"/>
	<circle cx="1239.4357166223563" cy="822.939697788662" r="3" stroke="yellow" stroke-width="1.0" fill="yellow" opacity="1"/>
	<circle cx="558.3403299697904" cy="819.1705471107255" r="3" stroke="yellow" stroke-width="1.0" fill="yellow" opacity="1"/>
	<circle cx="1241.6596700302096" cy="819.1705471107255" r="3" stroke="yellow" stroke-width="1.0" fill="yellow" opacity="1"/>
	<circle cx="556.1230133412615" cy="815.4000527867657" r="3" stroke="yellow" stroke-width="1.0" fill="yellow" opacity="1"/>
	<circle cx="1243.8769866587386" cy="815.4000527867657" r="3" stroke="yellow" stroke-width="1.0" fill="yellow" opacity="1"/>
	<circle cx="553.912376563694" cy="811.6282880590791" r="3" stroke="yellow" stroke-width="1.0" fill="yellow" opacity="1"/>
	<circle cx="1246.0876234363059" cy="811.6282880590791" r="3" stroke="yellow" stroke-width="1.0" fill="yellow" opacity="1"/>
	<circle cx="551.7084625789673" cy="807.8553261946394" r="3" stroke="yellow" stroke-width="1.0" fill="yellow" opacity="1"/>
	<circle cx="1248.2915374210327" cy="807.8553261946394" r="3" stroke="yellow" stroke-width="1.0" fill="yellow" opacity="1"/>
	<circle cx="549.5113141983703" cy="804.0812404836753" r="3" stroke="yellow" stroke-width="1.0" fill="yellow" opacity="1"/>
	<circle cx="1250.4886858016298" cy="804.0812404836753" r="3" stroke="yellow" stroke-width="1.0" fill="yellow" opacity="1"/>
	<circle cx="547.3209741017689" cy="800.3061042382461" r="3" stroke="yellow" stroke-width="1.0" fill="yellow" opacity="1"/>
	<circle cx="1252.679025898231" cy="800.3061042382461" r="3" stroke="yellow" stroke-width="1.0" fill="yellow" opacity="1"/>
	<circle cx="545.1374848367775" cy="796.529990790818" r="3" stroke="yellow" stroke-width="1.0" fill="yellow" opacity="1"/>
	<circle cx="1254.8625151632225" cy="796.529990790818" r="3" stroke="yellow" stroke-width="1.0" fill="yellow" opacity="1"/>
	<circle cx="542.9608888179323" cy="792.7529734928395" r="3" stroke="yellow" stroke-width="1.0" fill="yellow" opacity="1"/>
	<circle cx="1257.0391111820677" cy="792.7529734928395" r="3" stroke="yellow" stroke-width="1.0" fill="yellow" opacity="1"/>
	<circle cx="540.7912283258669" cy="788.975125713316" r="3" stroke="yellow" stroke-width="1.0" fill="yellow" opacity="1"/>
	<circle cx="1259.208771674133" cy="788.975125713316" r="3" stroke="yellow" stroke-width="1.0" fill="yellow" opacity="1"/>
	<circle cx="538.6285455064924" cy="785.1965208373861" r="3" stroke="yellow" stroke-width="1.0" fill="yellow" opacity="1"/>
	<circle cx="1261.3714544935076" cy="785.1965208373861" r="3" stroke="yellow" stroke-width="1.0" fill="yellow" opacity="1"/>
	<circle cx="536.4728823701768" cy="781.4172322648938" r="3" stroke="yellow" stroke-width="1.0" fill="yellow" opacity="1"/>
	<circle cx="1263.5271176298234" cy="781.4172322648938" r="3" stroke="yellow" stroke-width="1.0" fill="yellow" opacity="1"/>
	<circle cx="534.3242807909305" cy="777.6373334089651" r="3" stroke="yellow" stroke-width="1.0" fill="yellow" opacity="1"/>
	<circle cx="1265.6757192090695" cy="777.6373334089651" r="3" stroke="yellow" stroke-width="1.0" fill="yellow" opacity="1"/>
	<circle cx="532.1827825055923" cy="773.8568976945805" r="3" stroke="yellow" stroke-width="1.0" fill="yellow" opacity="1"/>
	<circle cx="1267.8172174944077" cy="773.8568976945805" r="3" stroke="yellow" stroke-width="1.0" fill="yellow" opacity="1"/>
	<circle cx="530.0484291130185" cy="770.0759985571485" r="3" stroke="yellow" stroke-width="1.0" fill="yellow" opacity="1"/>
	<circle cx="1269.9515708869815" cy="770.0759985571485" r="3" stroke="yellow" stroke-width="1.0" fill="yellow" opacity="1"/>
	<circle cx="527.9212620732752" cy="766.2947094410806" r="3" stroke="yellow" stroke-width="1.0" fill="yellow" opacity="1"/>
	<circle cx="1272.078737926725" cy="766.2947094410806" r="3" stroke="yellow" stroke-width="1.0" fill="yellow" opacity="1"/>
	<circle cx="525.8013227068325" cy="762.5131037983627" r="3" stroke="yellow" stroke-width="1.0" fill="yellow" opacity="1"/>
	<circle cx="1274.1986772931675" cy="762.5131037983627" r="3" stroke="yellow" stroke-width="1.0" fill="yellow" opacity="1"/>
	<circle cx="523.6886521937622" cy="758.7312550871302" r="3" stroke="yellow" stroke-width="1.0" fill="yellow" opacity="1"/>
	<circle cx="1276.3113478062378" cy="758.7312550871302" r="3" stroke="yellow" stroke-width="1.0" fill="yellow" opacity="1"/>
	<circle cx="521.5832915729382" cy="754.9492367702394" r="3" stroke="yellow" stroke-width="1.0" fill="yellow" opacity="1"/>
	<circle cx="1278.4167084270618" cy="754.9492367702394" r="3" stroke="yellow" stroke-width="1.0" fill="yellow" opacity="1"/>
	<circle cx="519.4852817412378" cy="751.1671223138413" r="3" stroke="yellow" stroke-width="1.0" fill="yellow" opacity="1"/>
	<circle cx="1280.514718258762" cy="751.1671223138413" r="3" stroke="yellow" stroke-width="1.0" fill="yellow" opacity="1"/>
	<circle cx="517.3946634527498" cy="747.384985185955" r="3" stroke="yellow" stroke-width="1.0" fill="yellow" opacity="1"/>
	<circle cx="1282.6053365472503" cy="747.384985185955" r="3" stroke="yellow" stroke-width="1.0" fill="yellow" opacity="1"/>
	<circle cx="515.3114773179801" cy="743.6028988550393" r="3" stroke="yellow" stroke-width="1.0" fill="yellow" opacity="1"/>
	<circle cx="1284.68852268202" cy="743.6028988550393" r="3" stroke="yellow" stroke-width="1.0" fill="yellow" opacity="1"/>
	<circle cx="513.2357638030649" cy="739.8209367885668" r="3" stroke="yellow" stroke-width="1.0" fill="yellow" opacity="1"/>
	<circle cx="1286.7642361969351" cy="739.8209367885668" r="3" stroke="yellow" stroke-width="1.0" fill="yellow" opacity="1"/>
	<circle cx="511.1675632289836" cy="736.0391724515957" r="3" stroke="yellow" stroke-width="1.0" fill="yellow" opacity="1"/>
	<circle cx="1288.8324367710163" cy="736.0391724515957" r="3" stroke="yellow" stroke-width="1.0" fill="yellow" opacity="1"/>
	<circle cx="509.106915770776" cy="732.2576793053439" r="3" stroke="yellow" stroke-width="1.0" fill="yellow" opacity="1"/>
	<circle cx="1290.8930842292239" cy="732.2576793053439" r="3" stroke="yellow" stroke-width="1.0" fill="yellow" opacity="1"/>
	<circle cx="507.05386145676164" cy="728.476530805761" r="3" stroke="yellow" stroke-width="1.0" fill="yellow" opacity="1"/>
	<circle cx="1292.9461385432382" cy="728.476530805761" r="3" stroke="yellow" stroke-width="1.0" fill="yellow" opacity="1"/>
	<circle cx="505.0084401677622" cy="724.6958004021018" r="3" stroke="yellow" stroke-width="1.0" fill="yellow" opacity="1"/>
	<circle cx="1294.9915598322377" cy="724.6958004021018" r="3" stroke="yellow" stroke-width="1.0" fill="yellow" opacity="1"/>
	<circle cx="502.9706916363272" cy="720.9155615354996" r="3" stroke="yellow" stroke-width="1.0" fill="yellow" opacity="1"/>
	<circle cx="1297.0293083636727" cy="720.9155615354996" r="3" stroke="yellow" stroke-width="1.0" fill="yellow" opacity="1"/>
	<circle cx="500.9406554459618" cy="717.1358876375394" r="3" stroke="yellow" stroke-width="1.0" fill="yellow" opacity="1"/>
	<circle cx="1299.0593445540383" cy="717.1358876375394" r="3" stroke="yellow" stroke-width="1.0" fill="yellow" opacity="1"/>
	<circle cx="498.9183710303581" cy="713.3568521288322" r="3" stroke="yellow" stroke-width="1.0" fill="yellow" opacity="1"/>
	<circle cx="1301.0816289696418" cy="713.3568521288322" r="3" stroke="yellow" stroke-width="1.0" fill="yellow" opacity="1"/>
	<circle cx="496.90387767262905" cy="709.5785284175876" r="3" stroke="yellow" stroke-width="1.0" fill="yellow" opacity="1"/>
	<circle cx="1303.096122327371" cy="709.5785284175876" r="3" stroke="yellow" stroke-width="1.0" fill="yellow" opacity="1"/>
	<circle cx="494.89721450454516" cy="705.8009898981884" r="3" stroke="yellow" stroke-width="1.0" fill="yellow" opacity="1"/>
	<circle cx="1305.1027854954548" cy="705.8009898981884" r="3" stroke="yellow" stroke-width="1.0" fill="yellow" opacity="1"/>
	<circle cx="492.8984205057749" cy="702.0243099497654" r="3" stroke="yellow" stroke-width="1.0" fill="yellow" opacity="1"/>
	<circle cx="1307.101579494225" cy="702.0243099497654" r="3" stroke="yellow" stroke-width="1.0" fill="yellow" opacity="1"/>
	<circle cx="490.9075345031271" cy="698.2485619347714" r="3" stroke="yellow" stroke-width="1.0" fill="yellow" opacity="1"/>
	<circle cx="1309.0924654968728" cy="698.2485619347714" r="3" stroke="yellow" stroke-width="1.0" fill="yellow" opacity="1"/>
	<circle cx="488.9245951697967" cy="694.4738191975558" r="3" stroke="yellow" stroke-width="1.0" fill="yellow" opacity="1"/>
	<circle cx="1311.0754048302033" cy="694.4738191975558" r="3" stroke="yellow" stroke-width="1.0" fill="yellow" opacity="1"/>
	<circle cx="486.94964102461404" cy="690.7001550629415" r="3" stroke="yellow" stroke-width="1.0" fill="yellow" opacity="1"/>
	<circle cx="1313.050358975386" cy="690.7001550629415" r="3" stroke="yellow" stroke-width="1.0" fill="yellow" opacity="1"/>
	<circle cx="484.98271043129574" cy="686.9276428347982" r="3" stroke="yellow" stroke-width="1.0" fill="yellow" opacity="1"/>
	<circle cx="1315.0172895687042" cy="686.9276428347982" r="3" stroke="yellow" stroke-width="1.0" fill="yellow" opacity="1"/>
	<circle cx="483.02384159770014" cy="683.1563557946201" r="3" stroke="yellow" stroke-width="1.0" fill="yellow" opacity="1"/>
	<circle cx="1316.9761584023" cy="683.1563557946201" r="3" stroke="yellow" stroke-width="1.0" fill="yellow" opacity="1"/>
	<circle cx="481.07307257508523" cy="679.3863672001025" r="3" stroke="yellow" stroke-width="1.0" fill="yellow" opacity="1"/>
	<circle cx="1318.9269274249148" cy="679.3863672001025" r="3" stroke="yellow" stroke-width="1.0" fill="yellow" opacity="1"/>
	<circle cx="479.1304412573687" cy="675.6177502837177" r="3" stroke="yellow" stroke-width="1.0" fill="yellow" opacity="1"/>
	<circle cx="1320.8695587426314" cy="675.6177502837177" r="3" stroke="yellow" stroke-width="1.0" fill="yellow" opacity="1"/>
	<circle cx="477.19598538039304" cy="671.8505782512927" r="3" stroke="yellow" stroke-width="1.0" fill="yellow" opacity="1"/>
	<circle cx="1322.804014619607" cy="671.8505782512927" r="3" stroke="yellow" stroke-width="1.0" fill="yellow" opacity="1"/>
	<circle cx="475.2697425211912" cy="668.0849242805883" r="3" stroke="yellow" stroke-width="1.0" fill="yellow" opacity="1"/>
	<circle cx="1324.7302574788089" cy="668.0849242805883" r="3" stroke="yellow" stroke-width="1.0" fill="yellow" opacity="1"/>
	<circle cx="473.3517500972576" cy="664.3208615198762" r="3" stroke="yellow" stroke-width="1.0" fill="yellow" opacity="1"/>
	<circle cx="1326.6482499027425" cy="664.3208615198762" r="3" stroke="yellow" stroke-width="1.0" fill="yellow" opacity="1"/>
	<circle cx="471.44204536582095" cy="660.5584630865186" r="3" stroke="yellow" stroke-width="1.0" fill="yellow" opacity="1"/>
	<circle cx="1328.5579546341792" cy="660.5584630865186" r="3" stroke="yellow" stroke-width="1.0" fill="yellow" opacity="1"/>
	<circle cx="469.5406654231205" cy="656.7978020655484" r="3" stroke="yellow" stroke-width="1.0" fill="yellow" opacity="1"/>
	<circle cx="1330.4593345768794" cy="656.7978020655484" r="3" stroke="yellow" stroke-width="1.0" fill="yellow" opacity="1"/>
	<circle cx="900.0" cy="750.0" r="5" stroke="white" stroke-width="1.0" fill="white" opacity="1"/>
	<circle cx="691.7913287992984" cy="1026.0482611836085" r="5" stroke="black" stroke-width="1.0" fill="black" opacity="1"/>
</svg>